<svg id="visual" viewBox="0 0 900 600" width="900" height="600" xmlns="http://www.w3.org/2000/svg" xmlns:xlink="http://www.w3.org/1999/xlink" version="1.1"><rect x="0" y="0" width="900" height="600" fill="#001220"></rect><g fill="#A7233A"><circle r="43" cx="264" cy="98"></circle><circle r="14" cx="360" cy="195"></circle><circle r="13" cx="100" cy="30"></circle><circle r="40" cx="61" cy="439"></circle><circle r="34" cx="464" cy="263"></circle><circle r="14" cx="720" cy="24"></circle><circle r="27" cx="219" cy="290"></circle><circle r="16" cx="403" cy="94"></circle><circle r="20" cx="389" cy="557"></circle><circle r="13" cx="637" cy="134"></circle><circle r="37" cx="477" cy="581"></circle><circle r="37" cx="24" cy="563"></circle><circle r="17" cx="209" cy="580"></circle><circle r="25" cx="791" cy="478"></circle><circle r="41" cx="741" cy="394"></circle><circle r="41" cx="606" cy="396"></circle><circle r="29" cx="604" cy="542"></circle><circle r="33" cx="324" cy="274"></circle><circle r="39" cx="797" cy="306"></circle><circle r="41" cx="427" cy="461"></circle><circle r="38" cx="43" cy="178"></circle><circle r="20" cx="522" cy="470"></circle><circle r="15" cx="342" cy="476"></circle><circle r="13" cx="51" cy="295"></circle><circle r="40" cx="545" cy="206"></circle><circle r="23" cx="836" cy="72"></circle><circle r="33" cx="624" cy="27"></circle><circle r="40" cx="866" cy="424"></circle><circle r="36" cx="520" cy="92"></circle><circle r="41" cx="14" cy="47"></circle><circle r="13" cx="142" cy="476"></circle><circle r="35" cx="463" cy="25"></circle><circle r="24" cx="866" cy="575"></circle><circle r="30" cx="828" cy="216"></circle><circle r="15" cx="192" cy="200"></circle><circle r="15" cx="341" cy="23"></circle><circle r="34" cx="464" cy="373"></circle><circle r="30" cx="687" cy="475"></circle><circle r="26" cx="596" cy="299"></circle><circle r="14" cx="898" cy="4"></circle><circle r="39" cx="145" cy="350"></circle><circle r="22" cx="690" cy="291"></circle><circle r="39" cx="210" cy="16"></circle><circle r="13" cx="305" cy="584"></circle><circle r="19" cx="894" cy="306"></circle><circle r="32" cx="249" cy="454"></circle><circle r="27" cx="743" cy="151"></circle><circle r="19" cx="153" cy="121"></circle><circle r="35" cx="750" cy="594"></circle><circle r="34" cx="323" cy="376"></circle><circle r="14" cx="112" cy="576"></circle><circle r="36" cx="455" cy="166"></circle></g></svg>