<svg id="visual" viewBox="0 0 960 540" width="960" height="540" xmlns="http://www.w3.org/2000/svg" xmlns:xlink="http://www.w3.org/1999/xlink" version="1.1"><path d="M0 295L26.7 305.8C53.3 316.7 106.7 338.3 160 338.3C213.3 338.3 266.7 316.7 320 313.2C373.3 309.7 426.7 324.3 480 337.7C533.3 351 586.7 363 640 356.2C693.3 349.3 746.7 323.7 800 324.2C853.3 324.7 906.7 351.3 933.3 364.7L960 378L960 541L933.3 541C906.7 541 853.3 541 800 541C746.7 541 693.3 541 640 541C586.7 541 533.3 541 480 541C426.7 541 373.3 541 320 541C266.7 541 213.3 541 160 541C106.7 541 53.3 541 26.7 541L0 541Z" fill="#ff2365" stroke-linecap="round" stroke-linejoin="miter"></path></svg>