<svg id="visual" viewBox="0 0 1920 1080" width="1920" height="1080" xmlns="http://www.w3.org/2000/svg" xmlns:xlink="http://www.w3.org/1999/xlink" version="1.1"><rect x="0" y="0" width="1920" height="1080" fill="#001220"></rect><defs><linearGradient id="grad1_0" x1="43.8%" y1="0%" x2="100%" y2="100%"><stop offset="14.444444444444446%" stop-color="#fbae3c" stop-opacity="1"></stop><stop offset="85.55555555555554%" stop-color="#fbae3c" stop-opacity="1"></stop></linearGradient></defs><defs><linearGradient id="grad1_1" x1="43.8%" y1="0%" x2="100%" y2="100%"><stop offset="14.444444444444446%" stop-color="#fbae3c" stop-opacity="1"></stop><stop offset="85.55555555555554%" stop-color="#f48350" stop-opacity="1"></stop></linearGradient></defs><defs><linearGradient id="grad1_2" x1="43.8%" y1="0%" x2="100%" y2="100%"><stop offset="14.444444444444446%" stop-color="#d96162" stop-opacity="1"></stop><stop offset="85.55555555555554%" stop-color="#f48350" stop-opacity="1"></stop></linearGradient></defs><defs><linearGradient id="grad1_3" x1="43.8%" y1="0%" x2="100%" y2="100%"><stop offset="14.444444444444446%" stop-color="#d96162" stop-opacity="1"></stop><stop offset="85.55555555555554%" stop-color="#af4b6d" stop-opacity="1"></stop></linearGradient></defs><defs><linearGradient id="grad1_4" x1="43.8%" y1="0%" x2="100%" y2="100%"><stop offset="14.444444444444446%" stop-color="#7c3e6b" stop-opacity="1"></stop><stop offset="85.55555555555554%" stop-color="#af4b6d" stop-opacity="1"></stop></linearGradient></defs><defs><linearGradient id="grad1_5" x1="43.8%" y1="0%" x2="100%" y2="100%"><stop offset="14.444444444444446%" stop-color="#7c3e6b" stop-opacity="1"></stop><stop offset="85.55555555555554%" stop-color="#49335c" stop-opacity="1"></stop></linearGradient></defs><defs><linearGradient id="grad1_6" x1="43.8%" y1="0%" x2="100%" y2="100%"><stop offset="14.444444444444446%" stop-color="#1d2540" stop-opacity="1"></stop><stop offset="85.55555555555554%" stop-color="#49335c" stop-opacity="1"></stop></linearGradient></defs><defs><linearGradient id="grad1_7" x1="43.8%" y1="0%" x2="100%" y2="100%"><stop offset="14.444444444444446%" stop-color="#1d2540" stop-opacity="1"></stop><stop offset="85.55555555555554%" stop-color="#001220" stop-opacity="1"></stop></linearGradient></defs><defs><linearGradient id="grad2_0" x1="0%" y1="0%" x2="56.3%" y2="100%"><stop offset="14.444444444444446%" stop-color="#fbae3c" stop-opacity="1"></stop><stop offset="85.55555555555554%" stop-color="#fbae3c" stop-opacity="1"></stop></linearGradient></defs><defs><linearGradient id="grad2_1" x1="0%" y1="0%" x2="56.3%" y2="100%"><stop offset="14.444444444444446%" stop-color="#f48350" stop-opacity="1"></stop><stop offset="85.55555555555554%" stop-color="#fbae3c" stop-opacity="1"></stop></linearGradient></defs><defs><linearGradient id="grad2_2" x1="0%" y1="0%" x2="56.3%" y2="100%"><stop offset="14.444444444444446%" stop-color="#f48350" stop-opacity="1"></stop><stop offset="85.55555555555554%" stop-color="#d96162" stop-opacity="1"></stop></linearGradient></defs><defs><linearGradient id="grad2_3" x1="0%" y1="0%" x2="56.3%" y2="100%"><stop offset="14.444444444444446%" stop-color="#af4b6d" stop-opacity="1"></stop><stop offset="85.55555555555554%" stop-color="#d96162" stop-opacity="1"></stop></linearGradient></defs><defs><linearGradient id="grad2_4" x1="0%" y1="0%" x2="56.3%" y2="100%"><stop offset="14.444444444444446%" stop-color="#af4b6d" stop-opacity="1"></stop><stop offset="85.55555555555554%" stop-color="#7c3e6b" stop-opacity="1"></stop></linearGradient></defs><defs><linearGradient id="grad2_5" x1="0%" y1="0%" x2="56.3%" y2="100%"><stop offset="14.444444444444446%" stop-color="#49335c" stop-opacity="1"></stop><stop offset="85.55555555555554%" stop-color="#7c3e6b" stop-opacity="1"></stop></linearGradient></defs><defs><linearGradient id="grad2_6" x1="0%" y1="0%" x2="56.3%" y2="100%"><stop offset="14.444444444444446%" stop-color="#49335c" stop-opacity="1"></stop><stop offset="85.55555555555554%" stop-color="#1d2540" stop-opacity="1"></stop></linearGradient></defs><defs><linearGradient id="grad2_7" x1="0%" y1="0%" x2="56.3%" y2="100%"><stop offset="14.444444444444446%" stop-color="#001220" stop-opacity="1"></stop><stop offset="85.55555555555554%" stop-color="#1d2540" stop-opacity="1"></stop></linearGradient></defs><g transform="translate(1920, 0)"><path d="M0 1080C-56.3 996 -112.6 912 -174.8 878.8C-237 845.6 -305 863.2 -340.6 822.3C-376.2 781.3 -379.5 681.7 -437.8 655.2C-496.1 628.7 -609.5 675.1 -642.8 642.8C-676.1 610.4 -629.3 499.2 -676.8 452.2C-724.4 405.3 -866.3 422.6 -947 392.3C-1027.7 361.9 -1047.3 284 -1059.2 210.7C-1071.2 137.4 -1075.6 68.7 -1080 0L0 0Z" fill="#0c1c30"></path><path d="M0 945C-49.3 871.5 -98.6 798 -153 768.9C-207.3 739.9 -266.8 755.3 -298 719.5C-329.2 683.6 -332 596.5 -383.1 573.3C-434.1 550.1 -533.3 590.7 -562.4 562.4C-591.5 534.1 -550.6 436.8 -592.2 395.7C-633.8 354.6 -758 369.7 -828.6 343.2C-899.2 316.7 -916.4 248.5 -926.8 184.4C-937.3 120.2 -941.2 60.1 -945 0L0 0Z" fill="#312c4f"></path><path d="M0 810C-42.2 747 -84.5 684 -131.1 659.1C-177.7 634.2 -228.7 647.4 -255.4 616.7C-282.2 586 -284.6 511.3 -328.3 491.4C-372.1 471.5 -457.1 506.3 -482.1 482.1C-507 457.8 -471.9 374.4 -507.6 339.2C-543.3 304 -649.7 316.9 -710.2 294.2C-770.8 271.4 -785.5 213 -794.4 158C-803.4 103 -806.7 51.5 -810 0L0 0Z" fill="#623965"></path><path d="M0 675C-35.2 622.5 -70.4 570 -109.3 549.2C-148.1 528.5 -190.6 539.5 -212.9 513.9C-235.1 488.3 -237.2 426.1 -273.6 409.5C-310.1 392.9 -380.9 422 -401.7 401.7C-422.5 381.5 -393.3 312 -423 282.6C-452.7 253.3 -541.4 264.1 -591.9 245.2C-642.3 226.2 -654.5 177.5 -662 131.7C-669.5 85.9 -672.3 42.9 -675 0L0 0Z" fill="#96446e"></path><path d="M0 540C-28.2 498 -56.3 456 -87.4 439.4C-118.5 422.8 -152.5 431.6 -170.3 411.1C-188.1 390.6 -189.7 340.9 -218.9 327.6C-248.1 314.3 -304.7 337.6 -321.4 321.4C-338 305.2 -314.6 249.6 -338.4 226.1C-362.2 202.6 -433.1 211.3 -473.5 196.1C-513.9 181 -523.6 142 -529.6 105.3C-535.6 68.7 -537.8 34.3 -540 0L0 0Z" fill="#c55469"></path><path d="M0 405C-21.1 373.5 -42.2 342 -65.6 329.5C-88.9 317.1 -114.4 323.7 -127.7 308.3C-141.1 293 -142.3 255.7 -164.2 245.7C-186 235.7 -228.6 253.2 -241 241C-253.5 228.9 -236 187.2 -253.8 169.6C-271.6 152 -324.8 158.5 -355.1 147.1C-385.4 135.7 -392.7 106.5 -397.2 79C-401.7 51.5 -403.4 25.8 -405 0L0 0Z" fill="#e9705a"></path><path d="M0 270C-14.1 249 -28.2 228 -43.7 219.7C-59.2 211.4 -76.2 215.8 -85.1 205.6C-94.1 195.3 -94.9 170.4 -109.4 163.8C-124 157.2 -152.4 168.8 -160.7 160.7C-169 152.6 -157.3 124.8 -169.2 113.1C-181.1 101.3 -216.6 105.6 -236.7 98.1C-256.9 90.5 -261.8 71 -264.8 52.7C-267.8 34.3 -268.9 17.2 -270 0L0 0Z" fill="#fa9845"></path><path d="M0 135C-7 124.5 -14.1 114 -21.9 109.8C-29.6 105.7 -38.1 107.9 -42.6 102.8C-47 97.7 -47.4 85.2 -54.7 81.9C-62 78.6 -76.2 84.4 -80.3 80.3C-84.5 76.3 -78.7 62.4 -84.6 56.5C-90.5 50.7 -108.3 52.8 -118.4 49C-128.5 45.2 -130.9 35.5 -132.4 26.3C-133.9 17.2 -134.5 8.6 -135 0L0 0Z" fill="#fbae3c"></path></g><g transform="translate(0, 1080)"><path d="M0 -1080C74.6 -1089.4 149.2 -1098.9 210.7 -1059.2C272.2 -1019.6 320.5 -930.8 351.7 -849C382.9 -767.2 397 -692.4 446.7 -668.5C496.4 -644.6 581.7 -671.7 671.8 -671.8C761.8 -671.8 856.7 -644.9 852.3 -569.5C847.8 -494 743.9 -370 717.9 -297.3C691.8 -224.7 743.7 -203.5 817 -162.5C890.3 -121.5 985.2 -60.8 1080 0L0 0Z" fill="#0c1c30"></path><path d="M0 -945C65.3 -953.3 130.6 -961.5 184.4 -926.8C238.1 -892.1 280.4 -814.5 307.7 -742.9C335 -671.3 347.4 -605.8 390.8 -584.9C434.3 -564 508.9 -587.7 587.8 -587.8C666.6 -587.9 749.7 -564.3 745.7 -498.3C741.8 -432.2 650.9 -323.7 628.1 -260.2C605.3 -196.6 650.7 -178.1 714.9 -142.2C779 -106.3 862 -53.2 945 0L0 0Z" fill="#312c4f"></path><path d="M0 -810C56 -817.1 111.9 -824.2 158 -794.4C204.1 -764.7 240.4 -698.1 263.8 -636.8C287.2 -575.4 297.7 -519.3 335 -501.4C372.3 -483.5 436.2 -503.8 503.8 -503.8C571.4 -503.9 642.6 -483.7 639.2 -427.1C635.8 -370.5 557.9 -277.5 538.4 -223C518.9 -168.5 557.7 -152.6 612.7 -121.9C667.7 -91.1 738.9 -45.6 810 0L0 0Z" fill="#623965"></path><path d="M0 -675C46.6 -680.9 93.3 -686.8 131.7 -662C170.1 -637.2 200.3 -581.8 219.8 -530.7C239.3 -479.5 248.1 -432.7 279.2 -417.8C310.2 -402.9 363.5 -419.8 419.8 -419.8C476.2 -419.9 535.5 -403.1 532.7 -355.9C529.9 -308.7 464.9 -231.2 448.7 -185.8C432.4 -140.5 464.8 -127.2 510.6 -101.6C556.5 -75.9 615.7 -38 675 0L0 0Z" fill="#96446e"></path><path d="M0 -540C37.3 -544.7 74.6 -549.4 105.3 -529.6C136.1 -509.8 160.2 -465.4 175.8 -424.5C191.4 -383.6 198.5 -346.2 223.3 -334.3C248.2 -322.3 290.8 -335.8 335.9 -335.9C380.9 -335.9 428.4 -322.5 426.1 -284.7C423.9 -247 371.9 -185 358.9 -148.7C345.9 -112.4 371.8 -101.8 408.5 -81.3C445.2 -60.8 492.6 -30.4 540 0L0 0Z" fill="#c55469"></path><path d="M0 -405C28 -408.5 56 -412.1 79 -397.2C102.1 -382.3 120.2 -349.1 131.9 -318.4C143.6 -287.7 148.9 -259.6 167.5 -250.7C186.1 -241.7 218.1 -251.9 251.9 -251.9C285.7 -251.9 321.3 -241.8 319.6 -213.5C317.9 -185.2 279 -138.7 269.2 -111.5C259.4 -84.3 278.9 -76.3 306.4 -60.9C333.9 -45.6 369.4 -22.8 405 0L0 0Z" fill="#e9705a"></path><path d="M0 -270C18.7 -272.4 37.3 -274.7 52.7 -264.8C68 -254.9 80.1 -232.7 87.9 -212.3C95.7 -191.8 99.2 -173.1 111.7 -167.1C124.1 -161.2 145.4 -167.9 167.9 -167.9C190.5 -168 214.2 -161.2 213.1 -142.4C211.9 -123.5 186 -92.5 179.5 -74.3C173 -56.2 185.9 -50.9 204.2 -40.6C222.6 -30.4 246.3 -15.2 270 0L0 0Z" fill="#fa9845"></path><path d="M0 -135C9.3 -136.2 18.7 -137.4 26.3 -132.4C34 -127.4 40.1 -116.4 44 -106.1C47.9 -95.9 49.6 -86.5 55.8 -83.6C62 -80.6 72.7 -84 84 -84C95.2 -84 107.1 -80.6 106.5 -71.2C106 -61.7 93 -46.2 89.7 -37.2C86.5 -28.1 93 -25.4 102.1 -20.3C111.3 -15.2 123.1 -7.6 135 0L0 0Z" fill="#fbae3c"></path></g></svg>